<svg xmlns="http://www.w3.org/2000/svg" viewBox="0 0 1018 394" width="1018" height="394"><defs><style type="text/css">@import url('https://fonts.googleapis.com/css?family=Roboto+Mono:400|Roboto:400,&amp;subset=cyrillic,cyrillic-ext,greek,greek-ext,latin-ext')</style></defs><g transform="translate(5,5)"><g><g><g transform="translate(560, 0)"><path d="M68.5 44.5 L110 27 A4.846153846153847 4.846153846153847 0 0 1 114 27 L155.5 44.5 L197 62 A2.1724137931034484 2.1724137931034484 0 0 1 197 66 L155.5 83.5 L114 101 A4.846153846153847 4.846153846153847 0 0 1 110 101 L68.5 83.5 L27 66 A2.1724137931034484 2.1724137931034484 0 0 1 27 62 Z" fill="#ffffff" stroke="#4d9ef6" stroke-width="2"/><g transform="translate(64.5, 44)"><text font-size="14" font-family="Roboto,sans-serif" x="47.5" y="25" text-anchor="middle" fill="#52565f">Buy Ticket?</text></g></g><g transform="translate(0, 0)"><path d="M29 29 C29 29 39 39 69 39 C97 39 126 25 156 25 C184 25 199 39 199 39 L199 45 L199 97 C199 99 197 100 195 99 C195 99 184 89 156 89 C126 89 97 103 69 103 C39 103 25 89 25 89 L25 83 L25 31 C25 29 27 28 29 29 Z" fill="#ffffff" stroke="#4d9ef6" stroke-width="2"/><g transform="translate(33, 44)"><text font-size="14" font-family="Roboto,sans-serif" x="79" y="25" text-anchor="middle" fill="#52565f">Choose Seat</text></g></g><g transform="translate(560, 256)"><path d="M31.5 28 L112 28 L192.5 28 C194.5 28 196 29.5 196 31.5 L196 64 L196 96.5 C196 98.5 194.5 100 192.5 100 L112 100 L31.5 100 C29.5 100 28 98.5 28 96.5 L28 64 L28 31.5 C28 29.5 29.5 28 31.5 28 Z" fill="#ffffff" stroke="#4d9ef6" stroke-width="2"/><g transform="translate(36, 34)"><text font-size="14" font-family="Roboto,sans-serif" x="76" y="35" text-anchor="middle" fill="#52565f">Schedule only</text></g></g><g transform="translate(280, 0)"><path d="M31.5 28 L112 28 L192.5 28 C194.5 28 196 29.5 196 31.5 L196 64 L196 96.5 C196 98.5 194.5 100 192.5 100 L112 100 L31.5 100 C29.5 100 28 98.5 28 96.5 L28 64 L28 31.5 C28 29.5 29.5 28 31.5 28 Z" fill="#ffffff" stroke="#4d9ef6" stroke-width="2"/><g transform="translate(36, 34)"><text font-size="14" font-family="Roboto,sans-serif" x="76" y="35" text-anchor="middle" fill="#52565f">Show amenties</text></g></g><g transform="translate(784, 256)"><path d="M31.5 28 L112 28 L192.5 28 C194.5 28 196 29.5 196 31.5 L196 64 L196 96.5 C196 98.5 194.5 100 192.5 100 L112 100 L31.5 100 C29.5 100 28 98.5 28 96.5 L28 64 L28 31.5 C28 29.5 29.5 28 31.5 28 Z" fill="#ffffff" stroke="#4d9ef6" stroke-width="2"/><g transform="translate(36, 34)"><text font-size="14" font-family="Roboto,sans-serif" x="76" y="35" text-anchor="middle" fill="#52565f">Amenity Map</text></g></g></g><g><g><path fill="none" stroke="#4d9ef6" stroke-width="2" stroke-dasharray="0px 0px" d="M 672,102.5L 672,128L 672,256L 672,281"/><path transform="translate( 675, 104.5 ) rotate( 180 )" d="M3 6C4.65685 6 6 4.65685 6 3C6 1.34315 4.65685 0 3 0C1.34315 0 0 1.34315 0 3C0 4.65685 1.34315 6 3 6Z" fill="#4d9ef6"/><path transform="translate( 679, 283 ) rotate( 540 )" d="M6.34003 0.275664C6.70452 -0.0918881 7.29548 -0.0918881 7.65997 0.275664L13.7266 6.39331C14.0911 6.76086 14.0911 7.35678 13.7266 7.72434C13.3621 8.09189 12.7712 8.09189 12.4067 7.72434L7 2.2722L1.5933 7.72434C1.22881 8.09189 0.637856 8.09189 0.273367 7.72434C-0.0911224 7.35678 -0.0911224 6.76086 0.273367 6.39331L6.34003 0.275664Z" fill="#4d9ef6"/></g><g><path fill="none" stroke="#76E27A" stroke-width="2" stroke-dasharray="0px 0px" d="M 759,64L 784,64L 886,64Q896,64 896,74L 896,256L 896,281"/><path transform="translate( 761, 61 ) rotate( 450 )" d="M3 6C4.65685 6 6 4.65685 6 3C6 1.34315 4.65685 0 3 0C1.34315 0 0 1.34315 0 3C0 4.65685 1.34315 6 3 6Z" fill="#76E27A"/><path transform="translate( 903, 283 ) rotate( 540 )" d="M6.34003 0.275664C6.70452 -0.0918881 7.29548 -0.0918881 7.65997 0.275664L13.7266 6.39331C14.0911 6.76086 14.0911 7.35678 13.7266 7.72434C13.3621 8.09189 12.7712 8.09189 12.4067 7.72434L7 2.2722L1.5933 7.72434C1.22881 8.09189 0.637856 8.09189 0.273367 7.72434C-0.0911224 7.35678 -0.0911224 6.76086 0.273367 6.39331L6.34003 0.275664Z" fill="#76E27A"/></g><g><path fill="none" stroke="#76E27A" stroke-width="2" stroke-dasharray="0px 0px" d="M 200,64L 224,64L 280,64L 305,64"/><path transform="translate( 202, 61 ) rotate( 450 )" d="M3 6C4.65685 6 6 4.65685 6 3C6 1.34315 4.65685 0 3 0C1.34315 0 0 1.34315 0 3C0 4.65685 1.34315 6 3 6Z" fill="#76E27A"/><path transform="translate( 307, 57 ) rotate( 450 )" d="M6.34003 0.275664C6.70452 -0.0918881 7.29548 -0.0918881 7.65997 0.275664L13.7266 6.39331C14.0911 6.76086 14.0911 7.35678 13.7266 7.72434C13.3621 8.09189 12.7712 8.09189 12.4067 7.72434L7 2.2722L1.5933 7.72434C1.22881 8.09189 0.637856 8.09189 0.273367 7.72434C-0.0911224 7.35678 -0.0911224 6.76086 0.273367 6.39331L6.34003 0.275664Z" fill="#76E27A"/></g><g><path fill="none" stroke="#76E27A" stroke-width="2" stroke-dasharray="0px 0px" d="M 477,64L 504,64L 560,64L 583,64"/><path transform="translate( 479, 61 ) rotate( 450 )" d="M3 6C4.65685 6 6 4.65685 6 3C6 1.34315 4.65685 0 3 0C1.34315 0 0 1.34315 0 3C0 4.65685 1.34315 6 3 6Z" fill="#76E27A"/><path transform="translate( 585, 57 ) rotate( 450 )" d="M6.34003 0.275664C6.70452 -0.0918881 7.29548 -0.0918881 7.65997 0.275664L13.7266 6.39331C14.0911 6.76086 14.0911 7.35678 13.7266 7.72434C13.3621 8.09189 12.7712 8.09189 12.4067 7.72434L7 2.2722L1.5933 7.72434C1.22881 8.09189 0.637856 8.09189 0.273367 7.72434C-0.0911224 7.35678 -0.0911224 6.76086 0.273367 6.39331L6.34003 0.275664Z" fill="#76E27A"/></g></g><g><g transform="translate( 672, 192 )"><circle r="13" cx="0" cy="0" fill="#4d9ef6"/><g transform="translate( -12, -12 )"><svg width="24" height="24" fill="none" viewBox="0 0 24 24" id="svgSkgv0isnt6d" xmlns="http://www.w3.org/2000/svg">
        <g>
            <path d="M12 21a9 9 0 1 0 0-18 9 9 0 0 0 0 18z" fill="#FD6764"/>
            <path d="M12 10.546L9.455 8 8 9.455 10.546 12 8 14.546 9.455 16 12 13.454 14.546 16 16 14.546 13.454 12 16 9.455 14.546 8 12 10.546z" fill="#fff"/>
        </g>
    <desc>Created with Snap</desc><defs/></svg></g></g><g transform="translate( 896, 185.84208416833656 )"><circle r="13" cx="0" cy="0" fill="#76E27A"/><g transform="translate( -12, -12 )"><svg width="24" height="24" fill="none" viewBox="0 0 24 24" id="svgSkgv0isnt6j" xmlns="http://www.w3.org/2000/svg">
        <g>
            <path d="M12 21a9 9 0 1 0 0-18 9 9 0 0 0 0 18z" fill="#55D45B"/>
            <path fill-rule="evenodd" clip-rule="evenodd" d="M17.707 9.707L11.5 15.914l-4.207-4.207 1.414-1.414 2.793 2.793 4.793-4.793 1.414 1.414z" fill="#fff"/>
        </g>
    <desc>Created with Snap</desc><defs/></svg></g></g></g></g></g></svg>