<svg xmlns="http://www.w3.org/2000/svg" viewBox="0 0 986 218" width="986" height="218"><defs><style type="text/css">@import url('https://fonts.googleapis.com/css?family=Roboto+Mono:400|Roboto:400,&amp;subset=cyrillic,cyrillic-ext,greek,greek-ext,latin-ext')</style></defs><rect x="0" y="0" width="986" height="218" fill="#ffffff"/><g transform="translate(45,45)"><g><g><g transform="translate(0, 0)"><path d="M64 28 L168 28 L272 28 C294 28 308 42 308 64 L308 64 L308 64 C308 86 294 100 272 100 L168 100 L64 100 C42 100 28 86 28 64 L28 64 L28 64 C28 42 42 28 64 28 Z" fill="#ffffff" stroke="#CC92F1" stroke-width="2"/><g transform="translate(36, 34)"><text font-size="14" font-family="Roboto,sans-serif" x="132" y="35" text-anchor="middle" fill="#52565f">Search</text></g></g><g transform="translate(672, 0)"><path d="M31.5 28 L112 28 L192.5 28 C194.5 28 196 29.5 196 31.5 L196 64 L196 96.5 C196 98.5 194.5 100 192.5 100 L112 100 L31.5 100 C29.5 100 28 98.5 28 96.5 L28 64 L28 31.5 C28 29.5 29.5 28 31.5 28 Z" fill="#ffffff" stroke="#4d9ef6" stroke-width="2"/><g transform="translate(36, 34)"><text font-size="14" font-family="Roboto,sans-serif" x="76" y="35" text-anchor="middle" fill="#52565f">True Site</text></g></g></g><g><g><path fill="none" stroke="#76E27A" stroke-width="2" stroke-dasharray="0px 0px" d="M 309,64L 336,64L 672,64L 697,64"/><path transform="translate( 311, 61 ) rotate( 450 )" d="M3 6C4.65685 6 6 4.65685 6 3C6 1.34315 4.65685 0 3 0C1.34315 0 0 1.34315 0 3C0 4.65685 1.34315 6 3 6Z" fill="#76E27A"/><path transform="translate( 699, 57 ) rotate( 450 )" d="M6.34003 0.275664C6.70452 -0.0918881 7.29548 -0.0918881 7.65997 0.275664L13.7266 6.39331C14.0911 6.76086 14.0911 7.35678 13.7266 7.72434C13.3621 8.09189 12.7712 8.09189 12.4067 7.72434L7 2.2722L1.5933 7.72434C1.22881 8.09189 0.637856 8.09189 0.273367 7.72434C-0.0911224 7.35678 -0.0911224 6.76086 0.273367 6.39331L6.34003 0.275664Z" fill="#76E27A"/></g></g></g></g></svg>